<?xml version="1.0" encoding="utf-8"?>
<!-- Generator: Adobe Illustrator 16.0.0, SVG Export Plug-In . SVG Version: 6.00 Build 0)  -->
<!DOCTYPE svg PUBLIC "-//W3C//DTD SVG 1.1//EN" "http://www.w3.org/Graphics/SVG/1.1/DTD/svg11.dtd">
<svg version="1.1" id="Ebene_1" xmlns="http://www.w3.org/2000/svg" xmlns:xlink="http://www.w3.org/1999/xlink" x="0px" y="0px"
	 width="35px" height="30px" viewBox="0 0 35 30" enable-background="new 0 0 35 30" xml:space="preserve">
<path d="M34.063,4.468H0.937C0.419,4.468,0,4.039,0,3.511V0.957C0,0.428,0.419,0,0.937,0h33.126C34.58,0,35,0.428,35,0.957v2.554
	C35,4.039,34.58,4.468,34.063,4.468z M34.063,17.235H0.937C0.419,17.235,0,16.804,0,16.276v-2.553c0-0.528,0.419-0.958,0.937-0.958
	h33.126c0.518,0,0.937,0.43,0.937,0.958v2.553C35,16.804,34.58,17.235,34.063,17.235z M34.063,30H0.937C0.419,30,0,29.572,0,29.043
	v-2.555c0-0.528,0.419-0.956,0.937-0.956h33.126c0.518,0,0.937,0.428,0.937,0.956v2.555C35,29.572,34.58,30,34.063,30z"/>
</svg>
