<svg version="1.1" xmlns="http://www.w3.org/2000/svg" xmlns:xlink="http://www.w3.org/1999/xlink">

  <defs>
    <style>
      g {
        display: none;
      }
      g:target,
      g:target g {
        display: inline;
      }
      .white {
        color: #ffffff;
      }
      .gray {
        color: #777777;
      }
    </style>

    <symbol id="icon-menu" viewBox="0 0 35 30">
      <title>Icon-Menu</title>
      <path fill="currentColor" d="M34.063 4.468H.937A.947.947 0 0 1 0 3.511V.957C0 .428.419 0 .937 0h33.126c.517 0 .937.428.937.957v2.554c0 .528-.42.957-.937.957zm0 12.767H.937A.949.949 0 0 1 0 16.276v-2.553c0-.528.419-.958.937-.958h33.126c.518 0 .937.43.937.958v2.553a.95.95 0 0 1-.937.959zm0 12.765H.937A.947.947 0 0 1 0 29.043v-2.555c0-.528.419-.956.937-.956h33.126c.518 0 .937.428.937.956v2.555c0 .529-.42.957-.937.957z"/>
    </symbol>

    <symbol id="fb-btn" viewBox="0 0 35 35">
      <title>Facebook-Btn</title>
      <path fill="currentColor" d="M35 3.75v27.5c0 2.07-1.68 3.75-3.75 3.75h-6.664V21.156h4.734l.68-5.281h-5.414V12.5c0-1.531.422-2.57 2.617-2.57H30V5.211C29.515 5.148 27.859 5 25.922 5c-4.031 0-6.797 2.461-6.797 6.984v3.898h-4.75v5.281h4.758V35H3.75A3.75 3.75 0 0 1 0 31.25V3.75A3.75 3.75 0 0 1 3.75 0h27.5A3.75 3.75 0 0 1 35 3.75z"/>
    </symbol>

  </defs>
  <!-- <g id="language-passive">
    <use class="black" xlink:href="#language"/>
  </g> -->
</svg>
